<svg width="73" height="73" viewBox="0 0 73 73" fill="none" xmlns="http://www.w3.org/2000/svg">
<path d="M7.60416 53.2292V19.7708C7.60416 16.425 10.3417 13.6875 13.6875 13.6875H59.3125C62.6583 13.6875 65.3958 16.425 65.3958 19.7708V53.2292C65.3958 56.575 62.6583 59.3125 59.3125 59.3125H13.6875C10.3417 59.3125 7.60416 56.575 7.60416 53.2292Z" fill="white"/>
<path d="M65.3958 31.9375V28.8958H47.1458C45.4729 28.8958 44.1042 27.5271 44.1042 25.8542C44.1042 24.1813 45.4729 22.8125 47.1458 22.8125H48.6667V19.7708H47.1458C43.8 19.7708 41.0625 22.5083 41.0625 25.8542C41.0625 29.2 43.8 31.9375 47.1458 31.9375H51.7083V41.0625H47.1458C42.8875 41.0625 39.5417 44.4083 39.5417 48.6667C39.5417 52.925 42.8875 56.2708 47.1458 56.2708H50.1875V53.2292H47.1458C44.5604 53.2292 42.5833 51.2521 42.5833 48.6667C42.5833 46.0813 44.5604 44.1042 47.1458 44.1042H65.3958V41.0625H54.75V31.9375H65.3958ZM25.8542 41.0625H21.2917V31.9375H25.8542C29.2 31.9375 31.9375 29.2 31.9375 25.8542C31.9375 22.5083 29.2 19.7708 25.8542 19.7708H21.2917V22.8125H25.8542C27.5271 22.8125 28.8958 24.1813 28.8958 25.8542C28.8958 27.5271 27.5271 28.8958 25.8542 28.8958H7.60416V31.9375H18.25V41.0625H7.60416V44.1042H25.8542C28.4396 44.1042 30.4167 46.0813 30.4167 48.6667C30.4167 51.2521 28.4396 53.2292 25.8542 53.2292H22.8125V56.2708H25.8542C30.1125 56.2708 33.4583 52.925 33.4583 48.6667C33.4583 44.4083 30.1125 41.0625 25.8542 41.0625Z" fill="#CCCCCC"/>
</svg>
