<svg width="35" height="43" viewBox="0 0 35 43" fill="none" xmlns="http://www.w3.org/2000/svg">
<path d="M25.4941 40.1732L25.4927 40.1643L25.491 40.1556C25.4595 39.9918 25.456 39.8732 25.5326 39.6451C25.6214 39.3806 25.8102 38.9963 26.1871 38.3178C29.0408 33.1811 30.5063 27.3788 30.4313 21.5001C30.5062 15.7957 29.1186 10.2238 26.3828 5.22215C26.0136 4.44824 25.6837 3.71948 25.4034 2.95067C25.5156 2.407 25.7938 1.94226 26.1964 1.66008C26.8383 1.32916 27.6262 1.38608 28.2368 1.77187C28.7249 2.4055 29.1365 3.03148 29.4798 3.75248L29.4838 3.76077L29.488 3.76891C31.4792 7.58277 32.8359 11.6954 33.5049 15.9454C33.9303 19.2971 33.9859 22.7046 33.6718 26.0751C33.0972 30.4047 31.8201 34.5852 29.8595 38.4881L29.859 38.4889C29.2583 39.6904 28.8065 40.5077 28.4272 41.022C28.0315 41.5588 27.8157 41.625 27.7188 41.625H26.5845C26.0055 41.3574 25.5937 40.8137 25.4941 40.1732ZM18.4557 37.4104L17.9115 37.2399C17.4143 36.871 17.1471 36.2361 17.2771 35.6076L17.2875 35.5574V35.5449C17.2879 35.5436 17.2883 35.5423 17.2888 35.5409C17.2989 35.5099 17.317 35.4629 17.3453 35.3974C17.4018 35.267 17.4853 35.0952 17.59 34.8881C17.6732 34.7236 17.7735 34.5298 17.8809 34.3224C18.029 34.0364 18.1905 33.7244 18.3392 33.4271C20.5937 29.0885 21.5685 24.1956 21.1295 19.321C20.8614 15.8226 19.8487 12.421 18.1874 9.34436C17.5865 8.14224 17.3185 7.53771 17.2535 7.1174C17.225 6.93281 17.2395 6.79842 17.2843 6.66515C17.3318 6.52393 17.4196 6.36417 17.5745 6.13583C18.208 5.45293 19.2292 5.34118 20.0203 5.91208C21.3219 7.84188 22.3557 9.95257 23.1205 12.1739C25.4797 19.1604 25.1107 26.773 22.0879 33.4821L22.0868 33.4844C21.3003 35.2542 20.6609 36.3492 20.0644 36.9457C19.7743 37.2358 19.5141 37.3873 19.2727 37.4527C19.0347 37.5171 18.7724 37.5096 18.4557 37.4104ZM10.0924 33.2403L9.48595 32.9371C9.45029 32.9012 9.41598 32.8638 9.38311 32.8251C9.20789 32.6187 9.07758 32.3783 9.00017 32.1193C9.00137 31.9744 9.01081 31.8203 9.0849 31.5701C9.17559 31.2638 9.36713 30.8033 9.77954 30.0701L9.77955 30.0702L9.78157 30.0665C11.1969 27.5005 11.9391 24.6179 11.9391 21.6875C11.9391 18.7595 11.1981 15.8791 9.78496 13.3147C9.48346 12.73 9.26524 12.2763 9.11931 11.9092C8.97183 11.5383 8.91074 11.2861 8.90086 11.1001C8.88516 10.8044 8.9867 10.5942 9.45439 10.1706L9.47712 10.15L9.49716 10.1268C9.74371 9.84135 10.1018 9.69927 10.4964 9.75188L10.5293 9.75626H10.5625C11.0612 9.75626 11.4012 9.86945 11.7378 10.1795C12.108 10.5205 12.4962 11.12 12.9989 12.1718L13.0046 12.1838L13.0109 12.1954C14.5647 15.0482 15.3695 18.2486 15.35 21.497H15.3498L15.3501 21.5111C15.4232 24.817 14.6194 28.1054 13.0301 31.01L13.03 31.0099L13.0241 31.0213C12.5187 32.0042 12.1683 32.5519 11.8474 32.8768C11.5601 33.1676 11.2875 33.2892 10.8705 33.3605C10.587 33.3883 10.3188 33.3535 10.0924 33.2403ZM2.58567 13.4989L2.58568 13.4989L2.59104 13.4979C2.99344 13.4234 3.2944 13.4733 3.59522 13.6605C3.92382 13.8649 4.28802 14.2556 4.74465 14.9496C6.02126 16.8923 6.70149 19.1661 6.70149 21.4906C6.70149 23.815 6.02141 26.0885 4.74509 28.031C4.29992 28.7029 3.85433 29.0926 3.43481 29.283C3.0271 29.468 2.60502 29.483 2.15186 29.3319L2.1302 29.3247C1.65518 29.077 1.29014 28.6841 1.10061 28.188C0.986416 27.7703 1.05911 27.3763 1.78925 26.2056C2.78296 24.8464 3.26125 23.1759 3.16989 21.5057C3.30139 19.809 2.83911 18.1342 1.86381 16.738C1.58043 16.307 1.32786 15.8566 1.10797 15.39C0.988665 14.5177 1.57242 13.6751 2.58567 13.4989Z" stroke="white"/>
</svg>
